<svg width="23" height="22" viewBox="0 0 23 22" fill="none" xmlns="http://www.w3.org/2000/svg">
<path d="M3.1666 0C1.84517 0 0.785645 1.05952 0.785645 2.38095V19.0476C0.785645 19.6791 1.03649 20.2847 1.48301 20.7312C1.92952 21.1777 2.53513 21.4286 3.1666 21.4286H19.8333C20.4647 21.4286 21.0703 21.1777 21.5169 20.7312C21.9634 20.2847 22.2142 19.6791 22.2142 19.0476V10.7143H19.8333V19.0476H3.1666V2.38095H11.4999V0H3.1666ZM18.3809 1.19048C18.1666 1.19228 17.9616 1.27772 17.8095 1.42857L16.3571 2.86905L19.3333 5.84524L20.7856 4.40476C21.0952 4.09524 21.0952 3.57143 20.7856 3.27381L18.9404 1.42857C18.7856 1.27381 18.5833 1.19048 18.3809 1.19048ZM15.5118 3.71429L6.73803 12.5V15.4762H9.71422L18.488 6.69048L15.5118 3.71429Z" fill="white"/>
</svg>
