<svg width="25" height="25" viewBox="0 0 25 25" fill="none" xmlns="http://www.w3.org/2000/svg">
<path d="M11.3095 15.7619H13.6905V18.1428H11.3095V15.7619ZM11.3095 6.23809H13.6905V13.3809H11.3095V6.23809ZM12.5 0.285706C5.91664 0.285706 0.595215 5.64285 0.595215 12.1905C0.595215 15.3478 1.84946 18.3758 4.08204 20.6084C5.1875 21.7139 6.49987 22.5908 7.94422 23.189C9.38857 23.7873 10.9366 24.0952 12.5 24.0952C15.6573 24.0952 18.6853 22.841 20.9179 20.6084C23.1505 18.3758 24.4047 15.3478 24.4047 12.1905C24.4047 10.6271 24.0968 9.07906 23.4985 7.63471C22.9003 6.19036 22.0234 4.87799 20.9179 3.77253C19.8125 2.66707 18.5001 1.79017 17.0557 1.1919C15.6114 0.593631 14.0633 0.285706 12.5 0.285706ZM12.5 21.7143C9.9741 21.7143 7.55169 20.7109 5.76563 18.9248C3.97957 17.1388 2.97617 14.7163 2.97617 12.1905C2.97617 9.6646 3.97957 7.24218 5.76563 5.45612C7.55169 3.67006 9.9741 2.66666 12.5 2.66666C15.0258 2.66666 17.4483 3.67006 19.2343 5.45612C21.0204 7.24218 22.0238 9.6646 22.0238 12.1905C22.0238 14.7163 21.0204 17.1388 19.2343 18.9248C17.4483 20.7109 15.0258 21.7143 12.5 21.7143Z" fill="white"/>
</svg>
